<svg width="277" height="277" viewBox="0 0 277 277" fill="none" xmlns="http://www.w3.org/2000/svg">
<path d="M7.76305 113.695C11.9974 117.932 15.1733 122.169 17.2904 126.23C19.4076 130.291 20.4662 134.175 20.4662 138.059L20.4662 139.294C20.4662 143.355 19.4076 147.239 17.2904 151.123C15.1732 155.184 11.9974 159.421 7.76304 163.658C2.47005 168.954 9.05982e-06 173.368 8.6894e-06 177.605C8.31898e-06 181.842 2.29361 186.256 7.76304 191.552C13.056 196.848 17.4669 199.32 21.7013 199.32C25.9357 199.32 30.3465 196.848 35.6395 191.552C40.9325 186.256 43.4025 181.842 43.4025 177.605C43.4025 173.368 40.9325 168.954 35.6395 163.658C31.4051 159.421 28.2293 155.184 26.1121 151.123C23.9949 147.062 22.9363 143.178 22.9363 139.294L22.9363 138.059C22.9363 134.175 23.9949 130.114 26.1121 126.23C28.2293 122.169 31.4051 117.932 35.6395 113.695C35.8159 113.519 35.9924 113.342 36.1688 113.166C40.2268 109.105 44.2847 106.104 48.3427 103.985C52.4006 101.867 56.2822 100.807 60.1637 100.807L61.3987 100.807C65.2803 100.807 69.3382 101.867 73.2198 103.985C77.1013 106.104 81.3357 109.105 85.3936 113.166C85.5701 113.342 85.5701 113.342 85.7465 113.519C89.9809 117.756 93.1567 121.993 95.2739 126.054C97.3911 130.114 98.4497 133.998 98.4497 137.882L98.4497 139.118C98.4497 143.178 97.3911 147.062 95.2739 150.946C93.1567 155.007 89.9809 159.244 85.7465 163.481C80.4535 168.778 77.9834 173.191 77.9834 177.428C77.9834 181.665 80.4535 186.079 85.7465 191.375C89.9809 195.612 93.1567 199.85 95.2739 203.91C97.3911 207.971 98.4497 211.855 98.4497 215.739L98.4497 216.974C98.4497 221.035 97.3911 224.919 95.2739 228.803C93.1567 232.864 89.9809 237.101 85.7465 241.338C80.4535 246.634 77.9834 251.048 77.9834 255.285C77.9834 259.522 80.277 263.936 85.7465 269.232C91.0395 274.528 95.4503 277 99.6847 277C103.919 277 108.33 274.528 113.623 269.232C118.916 263.936 121.386 259.522 121.386 255.285C121.386 251.048 118.916 246.634 113.623 241.338C109.389 237.101 106.213 232.864 104.096 228.803C101.978 224.742 100.92 220.859 100.92 216.974L100.92 215.739C100.92 211.855 101.978 207.794 104.096 203.91C106.213 199.85 109.389 195.612 113.623 191.375C113.799 191.199 113.799 191.199 113.976 191.022C118.034 186.962 122.268 183.784 126.15 181.842C130.208 179.723 134.089 178.664 137.971 178.664L139.206 178.664C143.264 178.664 147.145 179.723 151.027 181.842C155.085 183.96 159.143 187.138 163.377 191.199L163.554 191.375C167.788 195.612 170.964 199.85 173.081 203.91C175.198 207.971 176.257 211.855 176.257 215.739L176.257 216.975C176.257 221.035 175.198 224.919 173.081 228.803C170.964 232.864 167.788 237.101 163.554 241.338C158.261 246.634 155.79 251.048 155.79 255.285C155.79 259.522 158.084 263.936 163.553 269.232C168.846 274.528 173.257 277 177.492 277C181.726 277 186.137 274.528 191.43 269.232C196.723 263.936 199.193 259.522 199.193 255.285C199.193 251.048 196.723 246.634 191.43 241.338C187.196 237.101 184.02 232.864 181.903 228.803C179.785 224.742 178.727 220.859 178.727 216.975L178.727 215.739C178.727 211.855 179.785 207.794 181.903 203.91C184.02 199.85 187.196 195.612 191.43 191.375C196.723 186.079 199.193 181.665 199.193 177.428C199.193 173.191 196.723 168.778 191.43 163.481C187.196 159.244 184.02 155.007 181.903 150.946C179.785 146.886 178.727 143.002 178.727 139.118L178.727 137.882C178.727 133.998 179.785 129.938 181.903 126.054C184.02 121.993 187.196 117.756 191.43 113.519C191.606 113.342 191.606 113.166 191.783 113.166C196.017 109.105 200.075 105.927 203.957 103.985C208.015 101.867 211.896 100.808 215.778 100.808L217.013 100.808C220.894 100.808 224.952 101.867 228.834 103.985C232.892 106.104 237.126 109.282 241.361 113.519C246.654 118.815 251.064 121.287 255.299 121.287C259.533 121.287 263.944 118.992 269.237 113.519C274.53 108.222 277 103.809 277 99.5717C277 95.3346 274.53 90.921 269.237 85.6246C263.944 80.3282 259.533 77.8566 255.299 77.8566C251.064 77.8566 246.654 80.3282 241.361 85.6246C237.126 89.8617 232.892 93.0395 228.834 95.1581C224.776 97.2766 220.894 98.3359 217.013 98.3359L215.778 98.3359C211.72 98.3359 207.838 97.2766 203.957 95.1581C199.899 93.0395 195.664 89.8617 191.43 85.6246C191.254 85.448 191.254 85.4481 191.077 85.2715C187.019 81.211 183.843 76.9739 181.903 73.0899C179.785 69.0293 178.727 65.1453 178.727 61.2613L178.727 60.0255C178.727 56.1415 179.785 52.081 181.903 48.197C184.02 44.313 187.019 40.0759 191.077 36.0153C191.254 35.8388 191.254 35.8388 191.43 35.6622C195.664 31.4251 199.899 28.2473 203.957 26.1288C208.015 24.0102 211.896 22.9509 215.778 22.9509L217.013 22.9509C220.894 22.9509 224.952 24.0102 228.834 26.1288C232.892 28.2473 237.126 31.4251 241.361 35.6622C246.654 40.9586 251.064 43.4302 255.299 43.4302C259.533 43.4302 263.944 41.1351 269.237 35.6622C274.53 30.3658 277 25.9522 277 21.7151C277 17.478 274.53 13.0644 269.237 7.76804C263.944 2.47167 259.533 -1.527e-06 255.299 -1.89719e-06C251.064 -2.26737e-06 246.654 2.47167 241.361 7.76803C237.126 12.0051 232.892 15.1829 228.834 17.3015C224.776 19.42 220.894 20.4793 217.013 20.4793L215.778 20.4793C211.72 20.4793 207.838 19.42 203.957 17.3015C199.899 15.1829 195.664 12.0051 191.43 7.76803C186.137 2.47166 181.726 -8.32911e-06 177.492 -8.69929e-06C173.257 -9.06947e-06 168.847 2.47166 163.554 7.76803C159.319 12.0051 155.085 15.1829 151.027 17.3015C146.969 19.42 143.087 20.4793 139.206 20.4793L137.971 20.4793C133.913 20.4793 130.031 19.42 126.15 17.3015C122.092 15.1829 117.857 12.0051 113.623 7.76802C108.33 2.47165 103.919 -1.51312e-05 99.6847 -1.55014e-05C95.4503 -1.58716e-05 91.0395 2.29511 85.7465 7.76802C80.4535 13.0644 77.9835 17.478 77.9835 21.7151C77.9835 25.9522 80.4535 30.3658 85.7465 35.6622C91.0395 40.9586 95.4503 43.4302 99.6847 43.4302C103.919 43.4302 108.33 40.9586 113.623 35.6622C117.857 31.4251 122.092 28.2473 126.15 26.1288C130.208 24.0102 134.089 22.9509 137.971 22.9509L139.206 22.9509C143.087 22.9509 147.145 24.0102 151.027 26.1288C155.085 28.2473 159.319 31.4251 163.554 35.6622C163.73 35.8388 163.73 35.8388 163.906 36.0153C167.964 40.0759 171.14 44.3129 173.081 48.197C175.198 52.2575 176.257 56.1415 176.257 60.0255L176.257 61.2613C176.257 65.3219 175.198 69.2059 173.081 73.0899C170.964 77.1504 167.788 81.3875 163.554 85.6246C158.261 90.9209 155.79 95.3346 155.79 99.5717C155.79 103.809 158.261 108.222 163.554 113.519C167.788 117.756 170.964 121.993 173.081 126.054C175.198 130.114 176.257 133.998 176.257 137.882L176.257 139.118C176.257 143.178 175.198 147.062 173.081 150.946C170.964 155.007 167.788 159.244 163.554 163.481C163.377 163.658 163.201 163.834 163.024 164.011C158.966 168.071 154.908 171.073 151.027 173.015C146.969 175.133 143.087 176.192 139.206 176.192L137.971 176.192C134.089 176.192 130.031 175.133 126.15 173.015C122.268 170.896 118.034 167.895 113.976 163.834C113.799 163.658 113.799 163.658 113.623 163.481C109.389 159.244 106.213 155.007 104.096 150.946C101.978 146.886 100.92 143.002 100.92 139.118L100.92 137.882C100.92 133.998 101.978 129.938 104.096 126.054C106.213 121.993 109.389 117.756 113.623 113.519C118.916 108.222 121.386 103.809 121.386 99.5717C121.386 95.3346 118.916 90.9209 113.623 85.6246C108.33 80.3282 103.919 77.8566 99.6847 77.8566C95.4503 77.8566 91.0395 80.3282 85.7465 85.6246C81.5121 89.8617 77.2777 93.0395 73.2198 95.1581C69.1618 97.2766 65.2803 98.3359 61.3987 98.3359L60.1637 98.3359C56.1057 98.3359 52.2242 97.2766 48.3427 95.1581C44.2847 93.0395 40.0503 89.8617 35.8159 85.6246C30.523 80.3282 26.1121 77.8566 21.8777 77.8566C17.6433 77.8566 13.2325 80.1517 7.9395 85.6246C2.64651 90.9209 0.176438 95.3346 0.176438 99.5717C4.11346e-06 103.985 2.47005 108.399 7.76305 113.695Z" fill="#191235"/>
</svg>
