<svg width="1207" height="1207" viewBox="0 0 1507 1507" fill="none" xmlns="http://www.w3.org/2000/svg" version="1.1" xmlns:xlink="http://www.w3.org/1999/xlink"><path id="wire1" d="M655.189 851.712L655.188 851.711C635.741 832.357 627.061 802.113 627.061 753.464C627.061 704.815 635.741 674.57 655.188 655.217C674.636 635.862 704.857 627.063 753.461 627.063C802.068 627.063 832.396 635.751 851.732 655.215C871.071 674.681 879.861 704.817 879.861 753.464C879.861 802.113 871.181 832.357 851.734 851.711L851.733 851.712C832.396 871.066 802.066 879.864 753.461 879.864C704.856 879.864 674.525 871.066 655.189 851.712Z" stroke="#65529E"/><path opacity=".8" id="wire2" d="M533.478 880.435L533.477 880.434C508.255 836.99 507.274 779.441 530.26 693.658C553.245 607.874 582.869 558.526 626.434 533.514C670.002 508.5 727.562 507.298 813.268 530.263C898.977 553.228 948.469 582.905 973.444 626.493C998.42 670.083 999.648 727.49 976.663 813.271C953.677 899.055 924.054 948.402 880.488 973.415L880.487 973.416C837.116 998.481 779.362 999.631 693.655 976.666C607.948 953.701 558.506 923.828 533.478 880.435Z" stroke="#65529E"/><path id="wire3" opacity=".6" d="M397.471 848.803L397.471 848.802C378.424 778.397 398.686 697.357 463.084 585.816C527.482 474.275 587.534 416.208 658.029 397.501C728.528 378.793 809.666 398.749 921.107 463.089C1032.55 527.431 1090.8 587.612 1109.45 658.124C1128.09 728.64 1108.23 809.574 1043.83 921.112C979.436 1032.65 919.384 1090.72 848.888 1109.43L848.887 1109.43C778.645 1128.28 697.252 1108.18 585.811 1043.84C474.369 979.498 416.264 919.061 397.471 848.803Z" stroke="#65529E"/><path opacity=".4" id="wire4" d="M272.55 753.404L272.55 753.403C272.32 658.194 325.25 562.881 444.065 444.066C562.88 325.251 658.193 272.322 753.401 272.551C848.612 272.781 944.152 325.357 1062.86 444.066C1181.57 562.777 1234.69 658.315 1234.38 753.523C1234.06 848.735 1181.67 944.049 1062.86 1062.86C944.046 1181.68 848.733 1234.61 753.525 1234.38L753.523 1234.38C658.585 1234.42 562.775 1181.57 444.065 1062.86C325.355 944.153 272.508 848.342 272.55 753.404Z" stroke="#65529E"/><circle r="8" fill="#4E338A"><animateMotion dur="30.6s" repeatCount="indefinite"><mpath xlink:href="#wire1"/></animateMotion></circle><circle r="8" fill="#4E338A"><animateMotion dur="46.6s" repeatCount="indefinite"><mpath xlink:href="#wire2"/></animateMotion></circle><circle r="8" fill="#4E338A"><animateMotion dur="50.6s" repeatCount="indefinite"><mpath xlink:href="#wire3"/></animateMotion></circle><circle r="8" fill="#4E338A"><animateMotion dur="40.6s" repeatCount="indefinite"><mpath xlink:href="#wire4"/></animateMotion></circle><circle r="8" fill="#4E338A"><animateMotion dur="80.6s" repeatCount="indefinite"><mpath xlink:href="#wire5"/></animateMotion></circle></svg>